<svg width="213" height="394" viewBox="0 0 213 394" fill="none" xmlns="http://www.w3.org/2000/svg">
<rect width="212.256" height="394" rx="35" fill="white"/>
<path d="M143.049 188.786H148.564L143.766 206.514C142.956 210.035 141.679 211.53 138.75 211.53H132.955V206.67H136.662C137.846 206.67 138.314 206.327 138.75 204.769H137.161L131.397 188.786H136.912L140.339 198.881L143.049 188.786Z" fill="#0042D3"/>
<path d="M130.513 204.769H125.186V181.744H130.513V204.769Z" fill="#0042D3"/>
<path d="M119.947 197.79L124.06 204.769H117.797L115.554 200.937C114.962 201.28 114.37 201.622 113.809 201.965V204.769H108.481V181.744H113.809V196.139C116.395 194.3 118.14 192.151 118.14 188.786H123.405C123.405 192.711 122.066 195.703 119.947 197.79Z" fill="#0042D3"/>
<path d="M98.2079 188.038C103.536 188.038 107.088 191.901 107.088 196.762C107.088 201.654 103.536 205.517 98.2079 205.517C92.88 205.517 89.3281 201.654 89.3281 196.762C89.3281 191.901 92.88 188.038 98.2079 188.038ZM98.2079 200.843C100.202 200.843 101.916 199.41 101.916 196.762C101.916 194.113 100.202 192.68 98.2079 192.68C96.2138 192.68 94.5002 194.113 94.5002 196.762C94.5002 199.41 96.1827 200.843 98.2079 200.843Z" fill="#0042D3"/>
<path d="M79.6779 188.038C85.0057 188.038 88.5577 191.901 88.5577 196.762C88.5577 201.654 85.0057 205.517 79.6779 205.517C74.35 205.517 70.7981 201.654 70.7981 196.762C70.7981 191.901 74.35 188.038 79.6779 188.038ZM79.6779 200.843C81.6719 200.843 83.3856 199.41 83.3856 196.762C83.3856 194.113 81.6719 192.68 79.6779 192.68C77.6838 192.68 75.9702 194.113 75.9702 196.762C75.9702 199.41 77.6527 200.843 79.6779 200.843Z" fill="#0042D3"/>
<path d="M65.8203 193.74C68.9049 194.892 70.2135 197.011 70.2135 199.223C70.2135 203.149 67.939 204.769 63.8263 204.769L57.3456 204.738V204.769H51.7373V182.959H62.1126C65.758 182.959 68.0325 185.203 68.0325 188.754C68.0325 191.091 67.3782 192.493 65.8203 193.74ZM60.7106 187.944H57.3456V193.397L60.4925 191.714C61.7076 191.122 62.3307 190.562 62.3307 189.502C62.3307 188.692 61.8322 187.944 60.7106 187.944ZM62.2061 199.815C63.4524 199.815 64.0444 199.441 64.0444 198.444C64.0444 197.541 63.4212 196.637 61.8634 196.076L57.3456 198.444V199.784L62.2061 199.815Z" fill="#0042D3"/>
<path d="M160.674 207.226C160.674 209.999 158.346 212.247 155.474 212.247C152.601 212.247 150.273 209.999 150.273 207.226C150.273 204.453 152.601 202.205 155.474 202.205C158.346 202.205 160.674 204.453 160.674 207.226Z" fill="#F97316"/>
<rect x="76.9429" y="16.5825" width="57.7071" height="13.9293" rx="6.96465" fill="#090909"/>
</svg>
