<svg width="91" height="63" viewBox="0 0 91 63" fill="none" xmlns="http://www.w3.org/2000/svg">
<path d="M40.337 31.14C49.1719 34.47 52.92 40.59 52.92 46.98C52.92 58.32 46.4054 63 34.6256 63L16.0634 62.91V63H0V0H29.7173C40.1585 0 46.6731 6.48 46.6731 16.74C46.6731 23.49 44.7991 27.54 40.337 31.14ZM25.7015 14.4H16.0634V30.15L25.0768 25.29C28.5572 23.58 30.342 21.96 30.342 18.9C30.342 16.56 28.9141 14.4 25.7015 14.4ZM29.985 48.69C33.5547 48.69 35.2503 47.61 35.2503 44.73C35.2503 42.12 33.4654 39.51 29.0034 37.89L16.0634 44.73V48.6L29.985 48.69Z" fill="white"/>
<path d="M90.7197 49.14C90.7197 56.7947 83.9503 63 75.5997 63C67.2492 63 60.4797 56.7947 60.4797 49.14C60.4797 41.4854 67.2492 35.28 75.5997 35.28C83.9503 35.28 90.7197 41.4854 90.7197 49.14Z" fill="#F97316"/>
</svg>
