<svg width="67" height="43" viewBox="0 0 67 43" fill="none" xmlns="http://www.w3.org/2000/svg">
<path d="M1.05682 12V3.27273H4.00568C4.69034 3.27273 5.25 3.39631 5.68466 3.64347C6.12216 3.88778 6.44602 4.21875 6.65625 4.63636C6.86648 5.05398 6.97159 5.51989 6.97159 6.03409C6.97159 6.5483 6.86648 7.01562 6.65625 7.43608C6.44886 7.85653 6.12784 8.19176 5.69318 8.44176C5.25852 8.68892 4.7017 8.8125 4.02273 8.8125H1.90909V7.875H3.98864C4.45739 7.875 4.83381 7.79403 5.1179 7.6321C5.40199 7.47017 5.60795 7.25142 5.7358 6.97585C5.86648 6.69744 5.93182 6.38352 5.93182 6.03409C5.93182 5.68466 5.86648 5.37216 5.7358 5.09659C5.60795 4.82102 5.40057 4.60511 5.11364 4.44886C4.8267 4.28977 4.44602 4.21023 3.97159 4.21023H2.11364V12H1.05682ZM11.1264 12.1364C10.5355 12.1364 10.017 11.9957 9.57102 11.7145C9.12784 11.4332 8.78125 11.0398 8.53125 10.5341C8.28409 10.0284 8.16051 9.4375 8.16051 8.76136C8.16051 8.07955 8.28409 7.48437 8.53125 6.97585C8.78125 6.46733 9.12784 6.07244 9.57102 5.79119C10.017 5.50994 10.5355 5.36932 11.1264 5.36932C11.7173 5.36932 12.2344 5.50994 12.6776 5.79119C13.1236 6.07244 13.4702 6.46733 13.7173 6.97585C13.9673 7.48437 14.0923 8.07955 14.0923 8.76136C14.0923 9.4375 13.9673 10.0284 13.7173 10.5341C13.4702 11.0398 13.1236 11.4332 12.6776 11.7145C12.2344 11.9957 11.7173 12.1364 11.1264 12.1364ZM11.1264 11.233C11.5753 11.233 11.9446 11.1179 12.2344 10.8878C12.5241 10.6577 12.7386 10.3551 12.8778 9.98011C13.017 9.60511 13.0866 9.19886 13.0866 8.76136C13.0866 8.32386 13.017 7.91619 12.8778 7.53835C12.7386 7.16051 12.5241 6.85511 12.2344 6.62216C11.9446 6.3892 11.5753 6.27273 11.1264 6.27273C10.6776 6.27273 10.3082 6.3892 10.0185 6.62216C9.72869 6.85511 9.5142 7.16051 9.375 7.53835C9.2358 7.91619 9.16619 8.32386 9.16619 8.76136C9.16619 9.19886 9.2358 9.60511 9.375 9.98011C9.5142 10.3551 9.72869 10.6577 10.0185 10.8878C10.3082 11.1179 10.6776 11.233 11.1264 11.233ZM16.8878 12L14.8935 5.45455H15.9503L17.3651 10.4659H17.4332L18.831 5.45455H19.9048L21.2855 10.4489H21.3537L22.7685 5.45455H23.8253L21.831 12H20.8423L19.4105 6.97159H19.3082L17.8764 12H16.8878ZM27.6765 12.1364C27.0458 12.1364 26.5018 11.9972 26.0444 11.7188C25.5898 11.4375 25.239 11.0455 24.9918 10.5426C24.7475 10.0369 24.6254 9.44886 24.6254 8.77841C24.6254 8.10795 24.7475 7.51705 24.9918 7.00568C25.239 6.49148 25.5827 6.09091 26.0231 5.80398C26.4663 5.5142 26.9833 5.36932 27.5742 5.36932C27.9151 5.36932 28.2518 5.42614 28.5842 5.53977C28.9165 5.65341 29.2191 5.83807 29.4918 6.09375C29.7646 6.34659 29.9819 6.68182 30.1438 7.09943C30.3058 7.51705 30.3867 8.03125 30.3867 8.64205V9.06818H25.3413V8.19886H29.364C29.364 7.82955 29.2901 7.5 29.1424 7.21023C28.9975 6.92045 28.7901 6.69176 28.5202 6.52415C28.2532 6.35653 27.9379 6.27273 27.5742 6.27273C27.1737 6.27273 26.8271 6.37216 26.5344 6.57102C26.2447 6.76705 26.0217 7.02273 25.8654 7.33807C25.7092 7.65341 25.631 7.99148 25.631 8.35227V8.93182C25.631 9.42614 25.7163 9.84517 25.8867 10.1889C26.06 10.5298 26.3001 10.7898 26.6069 10.9688C26.9137 11.1449 27.2702 11.233 27.6765 11.233C27.9407 11.233 28.1793 11.196 28.3924 11.1222C28.6083 11.0455 28.7944 10.9318 28.9506 10.7812C29.1069 10.6278 29.2276 10.4375 29.3129 10.2102L30.2844 10.483C30.1822 10.8125 30.0103 11.1023 29.7688 11.3523C29.5273 11.5994 29.229 11.7926 28.8739 11.9318C28.5188 12.0682 28.1197 12.1364 27.6765 12.1364ZM31.9165 12V5.45455H32.8881V6.44318H32.9563C33.0756 6.11932 33.2915 5.85653 33.604 5.65483C33.9165 5.45312 34.2688 5.35227 34.6609 5.35227C34.7347 5.35227 34.8271 5.35369 34.9379 5.35653C35.0487 5.35937 35.1325 5.36364 35.1893 5.36932V6.39205C35.1552 6.38352 35.0771 6.37074 34.9549 6.35369C34.8356 6.33381 34.7092 6.32386 34.5756 6.32386C34.2575 6.32386 33.9734 6.39062 33.7234 6.52415C33.4762 6.65483 33.2802 6.83665 33.1353 7.0696C32.9933 7.29972 32.9222 7.5625 32.9222 7.85795V12H31.9165ZM38.9265 12.1364C38.2958 12.1364 37.7518 11.9972 37.2944 11.7188C36.8398 11.4375 36.489 11.0455 36.2418 10.5426C35.9975 10.0369 35.8754 9.44886 35.8754 8.77841C35.8754 8.10795 35.9975 7.51705 36.2418 7.00568C36.489 6.49148 36.8327 6.09091 37.2731 5.80398C37.7163 5.5142 38.2333 5.36932 38.8242 5.36932C39.1651 5.36932 39.5018 5.42614 39.8342 5.53977C40.1665 5.65341 40.4691 5.83807 40.7418 6.09375C41.0146 6.34659 41.2319 6.68182 41.3938 7.09943C41.5558 7.51705 41.6367 8.03125 41.6367 8.64205V9.06818H36.5913V8.19886H40.614C40.614 7.82955 40.5401 7.5 40.3924 7.21023C40.2475 6.92045 40.0401 6.69176 39.7702 6.52415C39.5032 6.35653 39.1879 6.27273 38.8242 6.27273C38.4237 6.27273 38.0771 6.37216 37.7844 6.57102C37.4947 6.76705 37.2717 7.02273 37.1154 7.33807C36.9592 7.65341 36.881 7.99148 36.881 8.35227V8.93182C36.881 9.42614 36.9663 9.84517 37.1367 10.1889C37.31 10.5298 37.5501 10.7898 37.8569 10.9688C38.1637 11.1449 38.5202 11.233 38.9265 11.233C39.1907 11.233 39.4293 11.196 39.6424 11.1222C39.8583 11.0455 40.0444 10.9318 40.2006 10.7812C40.3569 10.6278 40.4776 10.4375 40.5629 10.2102L41.5344 10.483C41.4322 10.8125 41.2603 11.1023 41.0188 11.3523C40.7773 11.5994 40.479 11.7926 40.1239 11.9318C39.7688 12.0682 39.3697 12.1364 38.9265 12.1364ZM45.6381 12.1364C45.0927 12.1364 44.6112 11.9986 44.1935 11.723C43.7759 11.4446 43.4492 11.0526 43.2134 10.5469C42.9776 10.0384 42.8597 9.4375 42.8597 8.74432C42.8597 8.05682 42.9776 7.46023 43.2134 6.95455C43.4492 6.44886 43.7773 6.05824 44.1978 5.78267C44.6183 5.5071 45.104 5.36932 45.6552 5.36932C46.0813 5.36932 46.418 5.44034 46.6651 5.58239C46.9151 5.72159 47.1055 5.88068 47.2362 6.05966C47.3697 6.2358 47.4734 6.38068 47.5472 6.49432H47.6325V3.27273H48.6381V12H47.6665V10.9943H47.5472C47.4734 11.1136 47.3683 11.2642 47.2319 11.446C47.0955 11.625 46.9009 11.7855 46.6481 11.9276C46.3952 12.0668 46.0586 12.1364 45.6381 12.1364ZM45.7745 11.233C46.1779 11.233 46.5188 11.1278 46.7972 10.9176C47.0756 10.7045 47.2873 10.4105 47.4322 10.0355C47.5771 9.65767 47.6495 9.22159 47.6495 8.72727C47.6495 8.23864 47.5785 7.81108 47.4364 7.4446C47.2944 7.07528 47.0842 6.78835 46.8058 6.58381C46.5273 6.37642 46.1836 6.27273 45.7745 6.27273C45.3484 6.27273 44.9933 6.3821 44.7092 6.60085C44.4279 6.81676 44.2163 7.1108 44.0742 7.48295C43.935 7.85227 43.8654 8.26705 43.8654 8.72727C43.8654 9.19318 43.9364 9.61648 44.0785 9.99716C44.2234 10.375 44.4364 10.6761 44.7177 10.9006C45.0018 11.1222 45.354 11.233 45.7745 11.233ZM54.131 12V3.27273H55.1367V6.49432H55.2219C55.2958 6.38068 55.3981 6.2358 55.5288 6.05966C55.6623 5.88068 55.8526 5.72159 56.0998 5.58239C56.3498 5.44034 56.6879 5.36932 57.114 5.36932C57.6651 5.36932 58.1509 5.5071 58.5714 5.78267C58.9918 6.05824 59.32 6.44886 59.5558 6.95455C59.7915 7.46023 59.9094 8.05682 59.9094 8.74432C59.9094 9.4375 59.7915 10.0384 59.5558 10.5469C59.32 11.0526 58.9933 11.4446 58.5756 11.723C58.158 11.9986 57.6765 12.1364 57.131 12.1364C56.7106 12.1364 56.3739 12.0668 56.1211 11.9276C55.8683 11.7855 55.6737 11.625 55.5373 11.446C55.4009 11.2642 55.2958 11.1136 55.2219 10.9943H55.1026V12H54.131ZM55.1197 8.72727C55.1197 9.22159 55.1921 9.65767 55.337 10.0355C55.4819 10.4105 55.6935 10.7045 55.9719 10.9176C56.2504 11.1278 56.5913 11.233 56.9947 11.233C57.4151 11.233 57.766 11.1222 58.0472 10.9006C58.3313 10.6761 58.5444 10.375 58.6864 9.99716C58.8313 9.61648 58.9038 9.19318 58.9038 8.72727C58.9038 8.26705 58.8327 7.85227 58.6907 7.48295C58.5515 7.1108 58.3398 6.81676 58.0558 6.60085C57.7745 6.3821 57.4208 6.27273 56.9947 6.27273C56.5856 6.27273 56.2418 6.37642 55.9634 6.58381C55.685 6.78835 55.4748 7.07528 55.3327 7.4446C55.1907 7.81108 55.1197 8.23864 55.1197 8.72727ZM61.8612 14.4545C61.6907 14.4545 61.5387 14.4403 61.4052 14.4119C61.2717 14.3864 61.1793 14.3608 61.1282 14.3352L61.3839 13.4489C61.6282 13.5114 61.8441 13.5341 62.0316 13.517C62.2191 13.5 62.3853 13.4162 62.5302 13.2656C62.6779 13.1179 62.8129 12.8778 62.935 12.5455L63.1225 12.0341L60.7021 5.45455H61.793L63.5998 10.6705H63.668L65.4748 5.45455H66.5657L63.7873 12.9545C63.6623 13.2926 63.5075 13.5724 63.3228 13.794C63.1381 14.0185 62.9237 14.1847 62.6793 14.2926C62.4379 14.4006 62.1651 14.4545 61.8612 14.4545Z" fill="black"/>
<path d="M46.6344 20.0084H48.4236L48.8473 20.2004L49.1769 20.4886L49.4123 20.9207L49.4593 21.1128L49.5064 33.9821L49.5535 35.2307L49.5064 36.0469L49.2239 36.4312L48.8944 36.7193L48.659 36.8153L46.3049 36.7672L45.9282 36.5752L45.787 36.239L45.7399 35.9509L45.5987 33.6459L45.4103 32.9257L45.0337 32.1573L44.7042 31.6292L44.092 31.0049L43.6213 30.6687L42.868 30.2846L42.2559 30.0925L42.0204 30.0444H40.8435L40.1843 30.1885L39.4781 30.4767L38.9602 30.8128L38.4894 31.2449L38.1599 31.6292L37.7832 32.3014L37.5007 33.0697L37.4065 33.598V34.6064L37.5948 35.4227L37.8774 36.095L38.254 36.6712L38.7719 37.2474L39.3368 37.6796L40.1372 38.1118L40.9376 38.3519L41.5968 38.4479L42.868 38.496L48.3765 38.592L49.0826 38.688L49.3652 38.8801L49.5535 39.2642L49.6005 39.5524L49.6477 40.5128V41.6652L49.5064 42.0494L49.271 42.3376L48.8944 42.4816H44.9396L42.5855 42.4336L40.7493 42.2895L39.5723 42.0494L38.5835 41.7133L37.7832 41.3292L37.0298 40.8489L36.4178 40.3207L36.0412 39.9846L35.5704 39.4563L35.0525 38.7361L34.5816 37.9198L34.1579 37.0074L33.7813 35.8548L33.5929 34.8945L33.5459 34.5103V33.2138L33.6871 32.3014L34.0167 31.197L34.4404 30.2846L34.9583 29.4682L35.4762 28.796L35.994 28.2198L36.5119 27.7395L37.1711 27.2593L37.9244 26.8272L38.7248 26.491L39.8077 26.2029L40.4668 26.1069H42.1147L43.0092 26.2509L44.045 26.539L44.8924 26.9232L45.5987 27.3074L45.6457 27.3554L45.6928 21.2089L45.787 20.7287L45.9754 20.4405L46.352 20.1044L46.6344 20.0084Z" fill="#05DCEF"/>
<path d="M22.5295 25.0024H24.0832L25.3544 25.1945L26.296 25.4826L27.1434 25.8667L27.8497 26.2989L28.4617 26.7791L28.9325 27.2113L29.2621 27.5955L29.6859 28.1717L30.1096 28.94L30.4392 29.6603L30.7687 30.7168L30.9571 31.6771L31.0984 32.8296V34.5103L30.91 34.7984L30.7216 34.8945L20.5521 34.9424L20.2696 35.0865L20.1284 35.2786V35.9029L20.3167 36.9593L20.5991 37.6796L20.9288 38.1118L21.1641 38.3518L21.5879 38.688L22.1058 38.9281L22.6707 39.0722L23.0945 39.1202H23.8007L24.6952 38.9761L25.2602 38.736L25.7781 38.3999L26.2019 37.9197L26.6255 37.2474L26.8139 37.1513H30.2508L30.5333 37.3434L30.6746 37.7276L30.5805 38.1118L30.2508 38.7841L29.8742 39.3603L29.4975 39.8404L29.4034 39.9845H29.3093L29.215 40.1766L28.6501 40.7049L27.991 41.185L27.2847 41.6172L26.1548 42.0974L25.0248 42.3855L24.4128 42.4816L23.7536 42.5295H22.6237L21.4937 42.3855L20.4109 42.0974L19.6576 41.7612L19.0455 41.4252L18.5276 41.0409L18.0568 40.6088L17.5389 40.0806L17.021 39.3603L16.5973 38.592L16.2207 37.6796L15.9382 36.6712L15.7498 35.4707L15.7028 34.9905V32.9737L15.844 31.7732L15.9852 30.9568L16.2677 29.9965L16.5031 29.3722L16.8797 28.6039L17.2565 27.9796L17.7743 27.3074L18.4334 26.635L19.1397 26.1068L19.7046 25.7707L20.6463 25.3865L21.5408 25.1464L22.5295 25.0024ZM22.7178 28.3638L22.0587 28.5558L21.5879 28.796L21.117 29.2281L20.7875 29.6123L20.458 30.2846L20.2225 31.0049L20.1284 31.533V31.8692L20.2696 32.0133H26.4373L26.5785 31.8692V31.4851L26.3902 30.6687L26.1548 30.0444L25.8252 29.4682L25.5898 29.1801H25.4956V29.0841L25.0248 28.7479L24.5069 28.5079L23.8949 28.3638H22.7178Z" fill="#5300BC"/>
<path d="M58.265 25.0024H60.1482L61.2782 25.1464L62.2198 25.3385L63.3026 25.7227L64.2914 26.2509L64.8563 26.6831L65.3271 27.1152L65.7039 27.5474L66.0805 28.1717L66.3629 28.8439V29.4682L66.1746 29.8524L65.798 30.1885L65.4213 30.3325H62.926L62.4552 30.1405L62.1256 29.8044L61.8432 29.2281L61.4665 28.892L61.0428 28.6999L60.3836 28.5558L60.007 28.5079H58.4062L57.7 28.6519L57.2762 28.8439L57.088 28.988H56.9937L56.7583 29.4682L56.7113 29.6603V30.0925L56.8996 30.4766L57.2762 30.7647L57.7941 31.0049L60.1011 31.6771L61.5607 32.1093L63.9148 32.7816L64.6209 33.0697L65.3271 33.5019L65.9392 34.0781L66.3629 34.7504L66.6454 35.4227L66.7867 36.095L66.8338 36.6232V37.1994L66.7396 38.0158L66.4571 38.9761L66.1275 39.6484L65.7509 40.1766L65.233 40.7528L64.6681 41.233L64.0559 41.6172L63.3026 41.9533L62.1727 42.2895L60.9486 42.4816L60.1482 42.5295H58.5474L57.2292 42.4335L56.005 42.2414L55.0164 42.0014L54.0747 41.6172L53.4156 41.233L52.9448 40.8489L52.521 40.4168L52.0973 39.7444L51.8148 39.0722L51.7207 38.736V38.2558L51.862 37.8717L52.1444 37.5355L52.521 37.3434H55.3459L55.8168 37.6315L56.2876 38.3518L56.6171 38.6399L57.088 38.832L57.8412 38.9761L58.5945 39.0242H59.8657L60.8074 38.9281L61.5136 38.736L62.0314 38.4479L62.3611 38.0637L62.4552 37.7756V37.3434L62.314 36.9593L61.9844 36.6232L61.3253 36.287L58.265 35.3266L55.7697 34.5583L54.828 34.2221L53.8393 33.694L53.3685 33.3098L52.9919 32.8776L52.6623 32.3014L52.4269 31.5811L52.3327 30.8128V30.1885L52.4269 29.3722L52.6152 28.6519L52.8506 28.0757L53.2273 27.4034L53.7452 26.8271L54.0747 26.491L54.6867 26.0588L55.393 25.6746L56.2876 25.3385L57.4175 25.0984L58.265 25.0024Z" fill="#5300BC"/>
<path d="M1.01362 25.339H13.3018L13.5373 25.5311L13.5843 25.6751V28.2202L13.4431 28.7964L13.2548 29.2286L12.8782 29.7569L12.266 30.4771L11.8424 31.0053L11.2303 31.7256L10.8066 32.2539L9.67664 33.5984L9.25288 34.1266L8.68786 34.7989L8.16996 35.4231L7.7463 35.9514L7.13417 36.6716L6.7105 37.1998L6.09847 37.9202L6.00423 38.1122L6.05135 38.4484L6.28674 38.5924L13.6315 38.6405L13.8197 38.8326L13.8668 38.9766V41.8098L13.7256 42.0499L13.6315 42.1459H0.401588L0.213216 41.9539L0.166199 41.8578V39.3127L0.307452 38.7365L0.636978 38.0643L1.15488 37.44L1.57864 36.9117L2.0023 36.4316L2.42606 35.9033L3.0381 35.183L4.07389 33.9345L4.68603 33.2142L5.20393 32.5899L5.76884 31.9177L6.1926 31.3895L6.80464 30.6691L7.36966 29.9969L7.7463 29.5167L7.79332 29.4207V29.1326L7.7463 28.9885L7.55793 28.9405L0.966604 28.8924L0.731116 28.6524L0.684097 28.5083V25.7232L0.82535 25.435L1.01362 25.339Z" fill="#5300BC"/>
<path d="M46.6354 20.0084H48.4245L48.8483 20.2004L49.1778 20.4886L49.4133 20.9207L49.4603 21.1128V33.4539H49.4133L49.2249 32.4935L48.8011 31.197L48.4245 30.4287L48.0479 29.7563L47.5771 29.1321L47.1533 28.6519L46.5413 28.0276L45.6938 27.4034V21.2089L45.788 20.7287L45.9763 20.4405L46.3529 20.1044L46.6354 20.0084Z" fill="#5300BC"/>
<path d="M51.4373 19H54.78V22.6015L53.0851 22.6495L52.3318 23.4178L52.0023 23.802L51.4844 24.3302H51.4373V19Z" fill="#05DCEF"/>
</svg>
