<svg width="31" height="21" viewBox="0 0 31 21" fill="none" xmlns="http://www.w3.org/2000/svg">
<path d="M13.4457 10.38C16.3906 11.49 17.64 13.53 17.64 15.66C17.64 19.44 15.4685 21 11.5419 21L5.35447 20.97V21H0V0H9.90577C13.3862 0 15.5577 2.16 15.5577 5.58C15.5577 7.83 14.933 9.18 13.4457 10.38ZM8.56715 4.8H5.35447V10.05L8.35892 8.43C9.51906 7.86 10.114 7.32 10.114 6.3C10.114 5.52 9.63805 4.8 8.56715 4.8ZM9.99501 16.23C11.1849 16.23 11.7501 15.87 11.7501 14.91C11.7501 14.04 11.1551 13.17 9.66779 12.63L5.35447 14.91V16.2L9.99501 16.23Z" fill="white"/>
<path d="M30.2399 16.38C30.2399 18.9316 27.9834 21 25.1999 21C22.4164 21 20.1599 18.9316 20.1599 16.38C20.1599 13.8284 22.4164 11.76 25.1999 11.76C27.9834 11.76 30.2399 13.8284 30.2399 16.38Z" fill="#F97316"/>
</svg>
