<svg width="40" height="40" viewBox="0 0 40 40" fill="none" xmlns="http://www.w3.org/2000/svg">
<path d="M20 0C8.97164 0 0 8.97164 0 20C0 31.0284 8.97164 40 20 40C31.0284 40 40 31.0284 40 20C40 8.97164 31.0284 0 20 0ZM24.5116 27.155C25.1633 27.8066 25.1633 28.86 24.5116 29.5116C24.3571 29.6666 24.1734 29.7896 23.9712 29.8734C23.769 29.9572 23.5522 30.0002 23.3333 30C23.1144 30.0002 22.8976 29.9572 22.6954 29.8733C22.4932 29.7895 22.3095 29.6666 22.1549 29.5116L13.8216 21.1784C13.17 20.5267 13.17 19.4734 13.8216 18.8217L22.155 10.4884C22.8066 9.83672 23.86 9.83672 24.5116 10.4884C25.1633 11.14 25.1633 12.1934 24.5116 12.845L17.3566 20L24.5116 27.155Z" fill="black" fill-opacity="0.59"/>
</svg>
