<svg width="18" height="20" viewBox="0 0 18 20" fill="none" xmlns="http://www.w3.org/2000/svg">
<path d="M14.2501 19.6876C16.3179 19.6876 18.0001 18.1105 18.0001 16.172V3.51564C18.0001 1.57712 16.3179 0 14.2501 0H3.75008C1.68232 0 6.10352e-05 1.57712 6.10352e-05 3.51564V16.172C6.10352e-05 18.1105 1.68232 19.6876 3.75008 19.6876H14.2501ZM1.50007 3.51564C1.50007 2.35267 2.50957 1.40626 3.75008 1.40626H14.2501C15.4906 1.40626 16.5001 2.35267 16.5001 3.51564V16.172C16.5001 17.3349 15.4906 18.2814 14.2501 18.2814H3.75008C2.50957 18.2814 1.50007 17.3349 1.50007 16.172V3.51564Z" fill="#666666"/>
<path d="M7.50006 10.5469H13.5001C13.699 10.5469 13.8898 10.4728 14.0304 10.341C14.1711 10.2091 14.2501 10.0303 14.2501 9.84377C14.2501 9.65729 14.1711 9.47845 14.0304 9.34659C13.8898 9.21472 13.699 9.14064 13.5001 9.14064H7.50006C7.30114 9.14064 7.11038 9.21472 6.96972 9.34659C6.82907 9.47845 6.75005 9.65729 6.75005 9.84377C6.75005 10.0303 6.82907 10.2091 6.96972 10.341C7.11038 10.4728 7.30114 10.5469 7.50006 10.5469ZM7.50006 7.03126H13.5001C13.699 7.03126 13.8898 6.95718 14.0304 6.82532C14.1711 6.69345 14.2501 6.51461 14.2501 6.32813C14.2501 6.14165 14.1711 5.9628 14.0304 5.83094C13.8898 5.69908 13.699 5.625 13.5001 5.625H7.50006C7.30114 5.625 7.11038 5.69908 6.96972 5.83094C6.82907 5.9628 6.75005 6.14165 6.75005 6.32813C6.75005 6.51461 6.82907 6.69345 6.96972 6.82532C7.11038 6.95718 7.30114 7.03126 7.50006 7.03126ZM7.50006 14.0625H13.5001C13.699 14.0625 13.8898 13.9885 14.0304 13.8566C14.1711 13.7247 14.2501 13.5459 14.2501 13.3594C14.2501 13.1729 14.1711 12.9941 14.0304 12.8622C13.8898 12.7304 13.699 12.6563 13.5001 12.6563H7.50006C7.30114 12.6563 7.11038 12.7304 6.96972 12.8622C6.82907 12.9941 6.75005 13.1729 6.75005 13.3594C6.75005 13.5459 6.82907 13.7247 6.96972 13.8566C7.11038 13.9885 7.30114 14.0625 7.50006 14.0625ZM4.51504 7.03126C4.71396 7.03126 4.90472 6.95718 5.04538 6.82532C5.18603 6.69345 5.26505 6.51461 5.26505 6.32813C5.26505 6.14165 5.18603 5.9628 5.04538 5.83094C4.90472 5.69908 4.71396 5.625 4.51504 5.625H4.50754C4.09354 5.625 3.76129 5.94 3.76129 6.32813C3.76129 6.71626 4.10104 7.03126 4.51504 7.03126ZM4.51504 10.5469C4.71396 10.5469 4.90472 10.4728 5.04538 10.341C5.18603 10.2091 5.26505 10.0303 5.26505 9.84377C5.26505 9.65729 5.18603 9.47845 5.04538 9.34659C4.90472 9.21472 4.71396 9.14064 4.51504 9.14064H4.50754C4.09354 9.14064 3.76129 9.45565 3.76129 9.84377C3.76129 10.2319 4.10104 10.5469 4.51504 10.5469ZM4.51504 14.0625C4.71396 14.0625 4.90472 13.9885 5.04538 13.8566C5.18603 13.7247 5.26505 13.5459 5.26505 13.3594C5.26505 13.1729 5.18603 12.9941 5.04538 12.8622C4.90472 12.7304 4.71396 12.6563 4.51504 12.6563H4.50754C4.09354 12.6563 3.76129 12.9713 3.76129 13.3594C3.76129 13.7475 4.10104 14.0625 4.51504 14.0625Z" fill="#666666"/>
</svg>
