<svg width="44" height="30" viewBox="0 0 44 30" fill="none" xmlns="http://www.w3.org/2000/svg">
<path d="M19.2081 14.8286C23.4152 16.4143 25.2 19.3286 25.2 22.3714C25.2 27.7714 22.0978 30 16.4884 30L7.64924 29.9571V30H0V7.62939e-06H14.1511C19.1231 7.62939e-06 22.2253 3.08572 22.2253 7.97143C22.2253 11.1857 21.3329 13.1143 19.2081 14.8286ZM12.2388 6.85715H7.64924V14.3571L11.9413 12.0429C13.5986 11.2286 14.4486 10.4571 14.4486 9C14.4486 7.88572 13.7686 6.85715 12.2388 6.85715ZM14.2786 23.1857C15.9784 23.1857 16.7858 22.6714 16.7858 21.3C16.7858 20.0571 15.9359 18.8143 13.8111 18.0429L7.64924 21.3V23.1429L14.2786 23.1857Z" fill="#0042D3"/>
<path d="M43.2003 23.4C43.2003 27.0451 39.9767 30 36.0003 30C32.0238 30 28.8003 27.0451 28.8003 23.4C28.8003 19.7549 32.0238 16.8 36.0003 16.8C39.9767 16.8 43.2003 19.7549 43.2003 23.4Z" fill="#F97316"/>
</svg>
