<svg width="127" height="36" viewBox="0 0 127 36" fill="none" xmlns="http://www.w3.org/2000/svg">
<path d="M106.263 8.19443H112.681L107.097 28.8256C106.155 32.9228 104.668 34.6632 101.26 34.6632H94.5156V29.0068H98.8303C100.208 29.0068 100.752 28.608 101.26 26.7951H99.4105L92.7026 8.19443H99.1204L103.109 19.9422L106.263 8.19443Z" fill="white"/>
<path d="M91.6743 26.7951H85.4741V0H91.6743V26.7951Z" fill="white"/>
<path d="M79.3783 18.6732L84.1644 26.7951H76.8765L74.2659 22.3353C73.5769 22.7341 72.888 23.133 72.2354 23.5318V26.7951H66.0352V0H72.2354V16.7515C75.2448 14.6122 77.2753 12.1104 77.2753 8.19444H83.403C83.403 12.763 81.8439 16.2438 79.3783 18.6732Z" fill="white"/>
<path d="M54.0798 7.32423C60.28 7.32423 64.4135 11.8203 64.4135 17.4766C64.4135 23.1692 60.28 27.6653 54.0798 27.6653C47.8796 27.6653 43.7461 23.1692 43.7461 17.4766C43.7461 11.8203 47.8796 7.32423 54.0798 7.32423ZM54.0798 22.2265C56.4003 22.2265 58.3946 20.5586 58.3946 17.4766C58.3946 14.3947 56.4003 12.7268 54.0798 12.7268C51.7592 12.7268 49.765 14.3947 49.765 17.4766C49.765 20.5586 51.723 22.2265 54.0798 22.2265Z" fill="white"/>
<path d="M32.5158 7.32423C38.716 7.32423 42.8495 11.8203 42.8495 17.4766C42.8495 23.1692 38.716 27.6653 32.5158 27.6653C26.3156 27.6653 22.1821 23.1692 22.1821 17.4766C22.1821 11.8203 26.3156 7.32423 32.5158 7.32423ZM32.5158 22.2265C34.8364 22.2265 36.8306 20.5586 36.8306 17.4766C36.8306 14.3947 34.8364 12.7268 32.5158 12.7268C30.1953 12.7268 28.2011 14.3947 28.2011 17.4766C28.2011 20.5586 30.159 22.2265 32.5158 22.2265Z" fill="white"/>
<path d="M16.3889 13.9596C19.9785 15.3011 21.5013 17.7667 21.5013 20.3411C21.5013 24.9096 18.8545 26.7951 14.0683 26.7951L6.52654 26.7588V26.7951H0V1.41409H12.0741C16.3164 1.41409 18.9632 4.0247 18.9632 8.15818C18.9632 10.8776 18.2018 12.5092 16.3889 13.9596ZM10.4425 7.21546H6.52654V13.5607L10.1887 11.6027C11.6027 10.9138 12.3279 10.2612 12.3279 9.02839C12.3279 8.08566 11.7478 7.21546 10.4425 7.21546ZM12.1829 21.03C13.6332 21.03 14.3221 20.5949 14.3221 19.4346C14.3221 18.3831 13.597 17.3316 11.784 16.6789L6.52654 19.4346V20.9937L12.1829 21.03Z" fill="white"/>
<path d="M126.773 29.654C126.773 32.8811 124.064 35.4972 120.721 35.4972C117.379 35.4972 114.669 32.8811 114.669 29.654C114.669 26.4269 117.379 23.8109 120.721 23.8109C124.064 23.8109 126.773 26.4269 126.773 29.654Z" fill="#F97316"/>
</svg>
