<svg width="22" height="20" viewBox="0 0 22 20" fill="none" xmlns="http://www.w3.org/2000/svg">
<path d="M15.0367 0C14.0471 0 13.1012 0.226855 12.2256 0.674308C11.6294 0.978839 11.0818 1.38345 10.612 1.86351C10.1421 1.38345 9.59449 0.978839 8.99838 0.674308C8.12264 0.226855 7.17684 0 6.18723 0C2.77561 0 0 2.77561 0 6.18728C0 8.6037 1.27619 11.1701 3.79309 13.8154C5.89456 16.024 8.46743 17.8651 10.2557 19.0207L10.612 19.2509L10.9682 19.0207C12.7565 17.8652 15.3294 16.024 17.4309 13.8154C19.9478 11.1701 21.2239 8.6037 21.2239 6.18728C21.2239 2.77561 18.4483 0 15.0367 0ZM16.4798 12.9104C14.6017 14.8843 12.3139 16.5623 10.612 17.6854C8.90998 16.5623 6.62226 14.8843 4.74418 12.9104C2.46727 10.5175 1.31282 8.2555 1.31282 6.18728C1.31282 3.4995 3.4995 1.31282 6.18728 1.31282C7.7347 1.31282 9.15618 2.02363 10.0871 3.26293L10.612 3.96157L11.1368 3.26293C12.0678 2.02363 13.4892 1.31282 15.0367 1.31282C17.7244 1.31282 19.9111 3.4995 19.9111 6.18728C19.9111 8.2555 18.7566 10.5175 16.4798 12.9104Z" fill="#666666"/>
</svg>
