<svg width="16" height="16" viewBox="0 0 16 16" fill="none" xmlns="http://www.w3.org/2000/svg">
<path d="M6.48951 15.0469C6.33301 15.0469 6.18292 14.9847 6.07226 14.874C5.9616 14.7634 5.89943 14.6133 5.89943 14.4568V8.78325L0.429451 2.76744C0.214126 2.53016 0.0723017 2.23548 0.0211925 1.91917C-0.0299168 1.60285 0.011886 1.2785 0.141527 0.985479C0.271169 0.692459 0.483074 0.443367 0.751527 0.268435C1.01998 0.0935031 1.33344 0.000252323 1.65385 0H14.2755C14.5959 0.000252323 14.9094 0.0935031 15.1779 0.268435C15.4463 0.443367 15.6582 0.692459 15.7879 0.985479C15.9175 1.2785 15.9593 1.60285 15.9082 1.91917C15.8571 2.23548 15.7153 2.53016 15.4999 2.76744L10.0299 8.78325V12.0965C10.0299 12.1849 10.01 12.2722 9.97168 12.3518C9.93338 12.4315 9.87767 12.5015 9.80867 12.5568L6.8583 14.9171C6.7537 15.001 6.62362 15.0468 6.48951 15.0469ZM1.65385 1.18015C1.56203 1.18038 1.47225 1.20721 1.39536 1.25741C1.31848 1.30761 1.25779 1.37901 1.22064 1.46298C1.18349 1.54696 1.17148 1.63989 1.18605 1.73055C1.20063 1.82121 1.24117 1.9057 1.30276 1.9738L6.92616 8.16957C7.02251 8.27552 7.07703 8.41289 7.07958 8.55607V13.2295L8.8498 11.8015V8.55607C8.84945 8.40881 8.90417 8.26674 9.00322 8.15777L14.6266 1.96199C14.6845 1.89359 14.7219 1.8102 14.7345 1.72144C14.747 1.63269 14.7342 1.5422 14.6975 1.46043C14.6607 1.37866 14.6016 1.30895 14.527 1.25936C14.4523 1.20976 14.3651 1.1823 14.2755 1.18015H1.65385Z" fill="#0042D3"/>
</svg>
