<svg width="40" height="40" viewBox="0 0 40 40" fill="none" xmlns="http://www.w3.org/2000/svg">
<circle cx="20" cy="20" r="20" fill="black" fill-opacity="0.52"/>
<path d="M20.5316 13.5015C21.9283 11.8121 23.6989 11.0674 25.5658 11.3169C26.6473 11.4875 27.6605 11.9556 28.4926 12.6675C29.3268 13.3814 29.9464 14.3133 30.2816 15.3589C30.6167 16.4044 30.6547 17.5226 30.391 18.5884C30.1602 19.5211 29.7059 20.3817 29.0707 21.0972L28.7875 21.395L20.1459 29.8667L11.5062 21.395C10.6775 20.5811 10.1061 19.5415 9.86267 18.4058C9.6194 17.2702 9.71473 16.0882 10.1371 15.0063L10.1381 15.0044C10.5106 14.0406 11.131 13.1921 11.9369 12.5454C12.742 11.8993 13.7035 11.4771 14.724 11.3218C16.5982 11.0709 18.367 11.8172 19.7611 13.5024L20.1469 13.9683L20.5316 13.5015Z" stroke="white"/>
</svg>
