<svg width="20" height="20" viewBox="0 0 20 20" fill="none" xmlns="http://www.w3.org/2000/svg">
<path d="M5.66675 14.6667C5.66675 14.4899 5.73699 14.3203 5.86202 14.1953C5.98704 14.0702 6.15662 14 6.33343 14H13.667C13.8438 14 14.0134 14.0702 14.1384 14.1953C14.2634 14.3203 14.3337 14.4899 14.3337 14.6667C14.3337 14.8435 14.2634 15.0131 14.1384 15.1381C14.0134 15.2631 13.8438 15.3334 13.667 15.3334H6.33343C6.15662 15.3334 5.98704 15.2631 5.86202 15.1381C5.73699 15.0131 5.66675 14.8435 5.66675 14.6667Z" fill="#0042D3"/>
<path fill-rule="evenodd" clip-rule="evenodd" d="M12.8804 0.98328C11.1893 -0.32776 8.81127 -0.32776 7.12022 0.98328L1.78672 5.11941C1.23156 5.54818 0.781906 6.09833 0.472207 6.72773C0.162508 7.35712 0.000981177 8.04905 0 8.75052V15.3857C0 17.9425 2.09773 20.0005 4.66681 20.0005H15.3338C17.9029 20.0005 20.0006 17.9428 20.0006 15.3857V8.75052C20.0006 7.33114 19.3403 5.9931 18.2139 5.11941L12.8804 0.98328ZM7.93724 2.03698C8.52808 1.58076 9.2535 1.33329 9.99997 1.33329C10.7464 1.33329 11.4719 1.58076 12.0627 2.03698L17.3962 6.1731C17.7907 6.47715 18.1104 6.86748 18.3307 7.31419C18.551 7.76089 18.6661 8.2521 18.6672 8.75018V15.3854C18.6672 17.1898 17.1832 18.6672 15.3338 18.6672H4.66681C2.81742 18.6672 1.33337 17.1898 1.33337 15.3857V8.75052C1.33337 7.74715 1.80005 6.79646 2.60408 6.1731L7.93724 2.03698Z" fill="#0042D3"/>
</svg>
