<svg width="11" height="14" viewBox="0 0 11 14" fill="none" xmlns="http://www.w3.org/2000/svg">
<path d="M5.49954 13.2L5.13433 12.8175C5.01532 12.6928 2.20953 9.75275 1.54376 9.01707C0.936881 8.34651 0.394364 7.41869 0.193994 6.70824C0.065272 6.25504 0 5.78365 0 5.30816C0 2.38568 2.46698 0.0044 5.49924 0C8.53302 0.0044 11 2.38539 11 5.30816C11 5.78365 10.9347 6.25504 10.8057 6.70883C10.6053 7.41869 10.0628 8.34651 9.45594 9.01707C8.78986 9.75304 5.98438 12.6928 5.86537 12.8175L5.49954 13.2ZM5.49894 0.96008C3.01526 0.9636 0.993349 2.91397 0.993349 5.30816C0.993349 5.69771 1.04678 6.08344 1.15213 6.4548C1.31424 7.02944 1.78299 7.82291 2.2915 8.38523C2.81489 8.96368 4.69533 10.9399 5.49924 11.7838C6.30345 10.9399 8.18359 8.96368 8.70698 8.38523C9.2158 7.8232 9.68424 7.02944 9.84636 6.45568C9.952 6.08373 10.0054 5.698 10.0054 5.30845C10.0057 2.91397 7.98383 0.9636 5.49894 0.96008Z" fill="#666666"/>
<path d="M5.49957 7.94385C3.94913 7.94385 2.68802 6.72798 2.68802 5.23315C2.68802 3.73833 3.94944 2.52246 5.49957 2.52246C7.04971 2.52246 8.31112 3.73833 8.31112 5.23315C8.31112 6.72798 7.05001 7.94385 5.49957 7.94385ZM5.49957 3.48283C4.49712 3.48283 3.68167 4.26809 3.68167 5.23345C3.68167 6.19881 4.49712 6.98406 5.49957 6.98406C6.50203 6.98406 7.31747 6.19881 7.31747 5.23345C7.31747 4.26809 6.50203 3.48283 5.49957 3.48283Z" fill="#666666"/>
</svg>
