<svg width="22" height="17" viewBox="0 0 22 17" fill="none" xmlns="http://www.w3.org/2000/svg">
<path fill-rule="evenodd" clip-rule="evenodd" d="M21.4288 1.19049C21.4288 0.87475 21.3033 0.571945 21.0801 0.348686C20.8568 0.125426 20.554 0 20.2383 0H1.1905C0.874767 0 0.571962 0.125426 0.348703 0.348686C0.125443 0.571945 1.90735e-05 0.87475 1.90735e-05 1.19049C1.90735e-05 1.50622 0.125443 1.80903 0.348703 2.03229C0.571962 2.25555 0.874767 2.38097 1.1905 2.38097H20.2383C20.554 2.38097 20.8568 2.25555 21.0801 2.03229C21.3033 1.80903 21.4288 1.50622 21.4288 1.19049ZM21.4288 8.3334C21.4288 8.01767 21.3033 7.71486 21.0801 7.4916C20.8568 7.26834 20.554 7.14292 20.2383 7.14292H1.1905C0.874767 7.14292 0.571962 7.26834 0.348703 7.4916C0.125443 7.71486 1.90735e-05 8.01767 1.90735e-05 8.3334C1.90735e-05 8.64914 0.125443 8.95195 0.348703 9.17521C0.571962 9.39846 0.874767 9.52389 1.1905 9.52389H20.2383C20.554 9.52389 20.8568 9.39846 21.0801 9.17521C21.3033 8.95195 21.4288 8.64914 21.4288 8.3334ZM21.4288 15.4763C21.4288 15.1606 21.3033 14.8578 21.0801 14.6345C20.8568 14.4113 20.554 14.2858 20.2383 14.2858H1.1905C0.874767 14.2858 0.571962 14.4113 0.348703 14.6345C0.125443 14.8578 1.90735e-05 15.1606 1.90735e-05 15.4763C1.90735e-05 15.7921 0.125443 16.0949 0.348703 16.3181C0.571962 16.5414 0.874767 16.6668 1.1905 16.6668H20.2383C20.554 16.6668 20.8568 16.5414 21.0801 16.3181C21.3033 16.0949 21.4288 15.7921 21.4288 15.4763Z" fill="#666666"/>
</svg>
