<svg width="17" height="19" viewBox="0 0 17 19" fill="none" xmlns="http://www.w3.org/2000/svg">
<path d="M13.8565 13.3361H2.39435V14.7649H13.8565V13.3361ZM13.3038 6.31368L13.6242 9.21428L15.0082 9.05329L14.6887 6.15365L13.3038 6.31368ZM2.62657 9.21428L2.94702 6.31368L1.5621 6.15365L1.24257 9.05329L2.62657 9.21428ZM1.64848 11.5414C2.19186 10.886 2.5309 10.0745 2.62657 9.21428L1.24257 9.05329C1.17989 9.6292 0.951625 10.173 0.586795 10.6155L1.64848 11.5414ZM13.6242 9.21428C13.7179 10.0723 14.0584 10.8824 14.6023 11.5414L15.664 10.6155C15.2991 10.173 15.0709 9.62922 15.0082 9.05329L13.6242 9.21428ZM2.39435 13.3361C1.57046 13.3361 1.04751 12.2673 1.64848 11.5414L0.586795 10.6155C-0.732183 12.2063 0.302564 14.7649 2.39435 14.7649V13.3361ZM13.8565 14.7649C15.9483 14.7649 16.9821 12.2073 15.664 10.6155L14.6023 11.5414C15.2042 12.2673 14.6804 13.3361 13.8565 13.3361V14.7649ZM14.6887 6.15365C14.3023 2.66245 11.4953 0 8.12541 0V1.42887C10.7541 1.42887 12.9945 3.51215 13.3038 6.31368L14.6887 6.15365ZM2.94702 6.31368C3.25633 3.51215 5.49674 1.42887 8.12541 1.42887V0C4.75551 0 1.9485 2.66245 1.5621 6.15365L2.94702 6.31368ZM11.564 16.2062C11.5994 16.1177 11.6171 16.0228 11.6161 15.9271C11.615 15.8315 11.5952 15.737 11.5579 15.6493C11.5206 15.5617 11.4665 15.4826 11.3988 15.4168C11.3311 15.3509 11.2512 15.2997 11.1639 15.2662C11.0765 15.2326 10.9835 15.2174 10.8903 15.2214C10.7971 15.2254 10.7056 15.2485 10.6213 15.2895C10.537 15.3304 10.4616 15.3883 10.3995 15.4597C10.3374 15.5311 10.29 15.6146 10.2599 15.7051L11.564 16.2062ZM5.99089 15.7051C5.96086 15.6146 5.91339 15.5311 5.85131 15.4597C5.78923 15.3883 5.7138 15.3304 5.6295 15.2895C5.54519 15.2485 5.45373 15.2254 5.36053 15.2214C5.26733 15.2174 5.1743 15.2326 5.08695 15.2662C4.9996 15.2997 4.91971 15.3509 4.85202 15.4168C4.78433 15.4826 4.73022 15.5617 4.6929 15.6493C4.65558 15.737 4.63581 15.8315 4.63475 15.9271C4.6337 16.0228 4.65139 16.1177 4.68678 16.2062L5.99089 15.7051ZM10.2599 15.7051C9.9599 16.5243 9.13322 17.1464 8.12541 17.1464V18.5752C9.69053 18.5752 11.0532 17.6065 11.564 16.2062L10.2599 15.7051ZM8.12541 17.1464C7.1176 17.1464 6.29091 16.5253 5.99089 15.7051L4.68678 16.2062C5.19765 17.6065 6.56028 18.5752 8.12541 18.5752V17.1464Z" fill="white"/>
</svg>
