<svg width="19" height="19" viewBox="0 0 19 19" fill="none" xmlns="http://www.w3.org/2000/svg">
<path fill-rule="evenodd" clip-rule="evenodd" d="M13.6828 5.64113C13.3795 4.8858 12.9294 4.19812 12.3586 3.61789C11.7878 3.03767 11.1075 2.57642 10.3573 2.26085C9.60698 1.94527 8.80156 1.78164 7.98762 1.77942C7.17368 1.7772 6.36739 1.93643 5.6154 2.24791C4.86341 2.55938 4.18067 3.01691 3.60669 3.59401C3.03271 4.17111 2.57889 4.85633 2.27149 5.60999C1.9641 6.36365 1.80923 7.1708 1.81586 7.98471C1.8225 8.79863 1.99049 9.60315 2.31013 10.3517C2.94664 11.8423 4.14543 13.0218 5.64625 13.6339C7.14707 14.246 8.82877 14.2415 10.3263 13.6212C11.8237 13.001 13.0161 11.8151 13.6445 10.321C14.273 8.82691 14.2867 7.14526 13.6828 5.64113ZM6.43648 0.153637C7.46641 -0.0512202 8.5266 -0.0512123 9.55653 0.153661C10.5865 0.358533 11.5659 0.764259 12.4391 1.34767C13.3122 1.93108 14.0619 2.68076 14.6453 3.55389C15.2287 4.42703 15.6344 5.40652 15.8392 6.43645C16.0441 7.46638 16.0441 8.52657 15.8392 9.55649C15.6343 10.5864 15.2286 11.5659 14.6452 12.439C14.0618 13.3122 13.3121 14.0618 12.439 14.6452C11.5658 15.2286 10.5863 15.6343 9.55641 15.8392C7.47638 16.2529 5.31718 15.8234 3.55383 14.6452C1.79047 13.4669 0.567397 11.6364 0.153669 9.55638C-0.260059 7.47634 0.169449 5.31715 1.3477 3.55379C2.52596 1.79044 4.35645 0.567365 6.43648 0.153637ZM14.4204 14.4204C14.593 14.248 14.827 14.1512 15.0709 14.1512C15.3148 14.1512 15.5488 14.248 15.7214 14.4204L18.7542 17.4519C18.9168 17.6264 19.0053 17.8572 19.0011 18.0957C18.9969 18.3342 18.9003 18.5617 18.7316 18.7304C18.563 18.899 18.3354 18.9956 18.097 18.9998C17.8585 19.004 17.6277 18.9155 17.4532 18.7529L14.4204 15.7214C14.248 15.5488 14.1512 15.3148 14.1512 15.0709C14.1512 14.8269 14.248 14.593 14.4204 14.4204Z" fill="#0042D3"/>
</svg>
