<svg width="108" height="132" viewBox="0 0 108 132" fill="none" xmlns="http://www.w3.org/2000/svg">
<path d="M92.0899 88.6314H15.9128V98.1276H92.0899V88.6314ZM88.4169 41.9606L90.5466 61.238L99.7446 60.168L97.6211 40.8971L88.4169 41.9606ZM17.4561 61.238L19.5859 41.9606L10.3817 40.8971L8.2581 60.168L17.4561 61.238ZM10.9558 76.7041C14.5671 72.3485 16.8203 66.9547 17.4561 61.238L8.2581 60.168C7.84155 63.9956 6.32449 67.6096 3.89983 70.5506L10.9558 76.7041ZM90.5466 61.238C91.1692 66.9406 93.4319 72.3243 97.047 76.7041L104.103 70.5506C101.678 67.6098 100.161 63.9957 99.7446 60.168L90.5466 61.238ZM15.9128 88.6314C10.4372 88.6314 6.96173 81.5282 10.9558 76.7041L3.89983 70.5506C-4.86608 81.123 2.01084 98.1276 15.9128 98.1276V88.6314ZM92.0899 98.1276C105.992 98.1276 112.863 81.1294 104.103 70.5506L97.047 76.7041C101.047 81.5282 97.5655 88.6314 92.0899 88.6314V98.1276ZM97.6211 40.8971C95.053 17.6946 76.3977 0 54.0014 0V9.49622C71.4715 9.49622 86.3612 23.3417 88.4169 41.9606L97.6211 40.8971ZM19.5859 41.9606C21.6416 23.3417 36.5313 9.49622 54.0014 9.49622V0C31.6051 0 12.9497 17.6946 10.3817 40.8971L19.5859 41.9606Z" fill="#0042D3"/>
<path d="M77.0523 115.549C77.2874 114.961 77.405 114.33 77.398 113.695C77.391 113.059 77.2596 112.431 77.0115 111.848C76.7635 111.266 76.4039 110.74 75.954 110.303C75.5042 109.865 74.9732 109.525 74.3927 109.302C73.8122 109.079 73.1939 108.978 72.5745 109.004C71.9551 109.031 71.3472 109.185 70.7869 109.457C70.2267 109.729 69.7254 110.114 69.3128 110.588C68.9002 111.063 68.5847 111.617 68.3851 112.219L77.0523 115.549ZM40.0132 112.219C39.8136 111.617 39.4981 111.063 39.0855 110.588C38.6729 110.114 38.1716 109.729 37.6113 109.457C37.0511 109.185 36.4432 109.031 35.8238 109.004C35.2044 108.978 34.5861 109.079 34.0056 109.302C33.425 109.525 32.8941 109.865 32.4442 110.303C31.9944 110.74 31.6348 111.266 31.3867 111.848C31.1387 112.431 31.0073 113.059 31.0003 113.695C30.9933 114.33 31.1109 114.961 31.346 115.549L40.0132 112.219ZM68.3851 112.219C66.3912 117.664 60.897 121.798 54.1991 121.798V131.294C64.601 131.294 73.657 124.856 77.0523 115.549L68.3851 112.219ZM54.1991 121.798C47.5012 121.798 42.0071 117.67 40.0132 112.219L31.346 115.549C34.7413 124.856 43.7973 131.294 54.1991 131.294V121.798Z" fill="#F97316"/>
</svg>
